<?xml version="1.0" encoding="UTF-8" standalone="no"?><!DOCTYPE svg PUBLIC "-//W3C//DTD SVG 1.1//EN" "http://www.w3.org/Graphics/SVG/1.1/DTD/svg11.dtd"><svg width="100%" height="100%" viewBox="0 0 200 200" version="1.1" xmlns="http://www.w3.org/2000/svg" xmlns:xlink="http://www.w3.org/1999/xlink" xml:space="preserve" xmlns:serif="http://www.serif.com/" style="fill-rule:evenodd;clip-rule:evenodd;stroke-linejoin:round;stroke-miterlimit:1.41421;"><rect id="Artboard2" x="0" y="0" width="200" height="200" style="fill:none;"/><clipPath id="_clip1"><rect x="0" y="0" width="200" height="200"/></clipPath><g clip-path="url(#_clip1)"><path d="M0,57.622l0,-25.201l63.709,0l0,25.201l-11.137,0l5.002,28.22c1.825,7.74 3.87,20.419 6.135,38.037l1.039,0c0.251,-2.957 3.397,-18.94 9.438,-47.947l9.627,-43.511l40.208,0l12.175,53.421c2.454,11.452 4.405,24.131 5.852,38.037l0.944,0c1.007,-11.2 2.926,-23.501 5.757,-36.904l6.607,-29.353l-10.665,0l0,-25.201l55.309,0l0,25.201l-10.571,0l-28.882,109.957l-45.776,0l-11.609,-45.965c-1.699,-6.166 -3.304,-14.158 -4.814,-23.974l-0.755,0c-0.881,6.419 -2.422,14.252 -4.625,23.502l-11.798,46.437l-44.832,0l-25.578,-109.957l-10.76,0Z" style="fill:#636969;fill-rule:nonzero;"/></g></svg>