<svg viewBox="0 0 200 200" xmlns="http://www.w3.org/2000/svg" fill-rule="evenodd" clip-rule="evenodd" stroke-linejoin="round" stroke-miterlimit="1.414"><path fill="none" d="M0 0h200v200H0z"/><clipPath id="a"><path d="M0 0h200v200H0z"/></clipPath><g clip-path="url(#a)"><path d="M0 57.622V32.421h63.709v25.201H52.572l5.002 28.22c1.825 7.74 3.87 20.419 6.135 38.037h1.039c.251-2.957 3.397-18.94 9.438-47.947l9.627-43.511h40.208l12.175 53.421c2.454 11.452 4.405 24.131 5.852 38.037h.944c1.007-11.2 2.926-23.501 5.757-36.904l6.607-29.353h-10.665V32.421H200v25.201h-10.571l-28.882 109.957h-45.776l-11.609-45.965c-1.699-6.166-3.304-14.158-4.814-23.974h-.755c-.881 6.419-2.422 14.252-4.625 23.502L81.17 167.579H36.338L10.76 57.622H0z" fill="#636969" fill-rule="nonzero"/></g></svg>